HIERARCHY
ROOT Hips
{
	OFFSET 0.00 0.00 0.00
	CHANNELS 6 Xposition Yposition Zposition Xrotation Yrotation Zrotation
	JOINT Spine
	{
		OFFSET 0.00000 5.19526 0.00000
		CHANNELS 3 Xrotation Yrotation Zrotation
		JOINT Head
		{
			OFFSET 0.00000 15.65388 0.00000
			CHANNELS 3 Xrotation Yrotation Zrotation
			End Site
			{
				OFFSET 0.00000 4.52755 0.00000
			}
		}
		JOINT LeftShoulder
		{
			OFFSET 0.00000 10.32977 0.00000
			CHANNELS 3 Xrotation Yrotation Zrotation
			JOINT LeftArm
			{
				OFFSET 6.99601 0.00000 0.00000
				CHANNELS 3 Xrotation Yrotation Zrotation
				JOINT LeftForeArm
				{
					OFFSET 10.20930 0.00000 0.00000
					CHANNELS 3 Yrotation Zrotation Xrotation
					JOINT LeftHand
					{
						OFFSET 8.56316 0.00000 0.00000
						CHANNELS 3 Xrotation Yrotation Zrotation
						JOINT LeftHandThumb1
						{
							OFFSET 0.00000 0.00000 0.00000
							CHANNELS 3 Xrotation Zrotation Yrotation
							End Site
							{
								OFFSET 0.00000 0.00000 3.93700
							}
						}
						End Site
						{
							OFFSET 3.93700 0.00000 0.00000
						}
					}
				}
			}
		}
		JOINT RightShoulder
		{
			OFFSET 0.00000 10.32977 0.00000
			CHANNELS 3 Xrotation Yrotation Zrotation
			JOINT RightArm
			{
				OFFSET -6.99601 0.00000 0.00000
				CHANNELS 3 Xrotation Yrotation Zrotation
				JOINT RightForeArm
				{
					OFFSET -10.20930 0.00000 0.00000
					CHANNELS 3 Yrotation Zrotation Xrotation
					JOINT RightHand
					{
						OFFSET -8.56316 0.00000 0.00000
						CHANNELS 3 Xrotation Yrotation Zrotation
						JOINT RightHandThumb1
						{
							OFFSET 0.00000 0.00000 0.00000
							CHANNELS 3 Xrotation Zrotation Yrotation
							End Site
							{
								OFFSET 0.00000 0.00000 3.93700
							}
						}
						End Site
						{
							OFFSET -3.93700 0.00000 0.00000
						}
					}
				}
			}
		}
	}
	JOINT LeftUpLeg
	{
		OFFSET 3.35136 0.00000 0.00000
		CHANNELS 3 Xrotation Yrotation Zrotation
		JOINT LeftLeg
		{
			OFFSET 0.00000 -16.34683 0.00000
			CHANNELS 3 Xrotation Yrotation Zrotation
			JOINT LeftFoot
			{
				OFFSET 0.00000 -13.95979 0.00000
				CHANNELS 3 Xrotation Yrotation Zrotation
				JOINT LeftToeBase
				{
					OFFSET 0.00000 -1.33694 4.98954
					CHANNELS 3 Xrotation Yrotation Zrotation
					End Site
					{
						OFFSET 0.00000 0.00000 2.95275
					}
				}
			}
		}
	}
	JOINT RightUpLeg
	{
		OFFSET -3.35136 0.00000 0.00000
		CHANNELS 3 Xrotation Yrotation Zrotation
		JOINT RightLeg
		{
			OFFSET 0.00000 -16.34683 0.00000
			CHANNELS 3 Xrotation Yrotation Zrotation
			JOINT RightFoot
			{
				OFFSET 0.00000 -13.95979 0.00000
				CHANNELS 3 Xrotation Yrotation Zrotation
				JOINT RightToeBase
				{
					OFFSET 0.00000 -1.33694 4.98954
					CHANNELS 3 Xrotation Yrotation Zrotation
					End Site
					{
						OFFSET 0.00000 0.00000 2.95275
					}
				}
			}
		}
	}
}
MOTION
Frames:	13
Frame Time: 0.008333
1.3769 31.8356 -6.5854 5.4212 -8.8037 -2.8198 -6.3713 8.3226 2.1195 7.6570 -6.2250 2.3337 -10.0008 6.5448 34.5647 -20.4412 -10.7816 -35.7301 -7.8293 -0.0000 23.4384 3.2266 13.9083 -13.1991 32.8623 0.0000 24.3270 8.6791 -22.0982 -22.7579 -26.8107 17.0883 22.8422 1.4041 -0.0000 1.4325 0.4099 -14.4488 1.6424 33.1476 -0.0000 -26.2537 1.1997 4.3786 4.0182 -3.3999 0.0000 -0.0000 -14.2597 17.8760 -1.3467 5.1738 -0.0000 -0.0000 -1.7890 1.6427 1.4263 1.1233 -0.0000 -0.0000 -10.9282 -25.6396 13.7769 8.5234 -0.0000 -0.0000
1.3772 31.8358 -6.5856 5.4176 -8.7988 -2.8198 -6.3646 8.3097 2.1150 7.6579 -6.2170 2.3362 -10.0134 6.5509 34.5596 -20.4572 -10.7689 -35.7375 -7.8150 0.0000 23.4094 3.2125 13.8965 -13.1541 32.8623 0.0000 24.3270 8.6842 -22.1084 -22.7470 -26.8172 17.1228 22.8476 1.3961 0.0000 1.3182 0.3924 -14.5758 1.5590 33.1476 -0.0000 -26.2537 1.2037 4.3842 4.0169 -3.4032 0.0000 -0.0000 -14.2570 17.8612 -1.3463 5.1767 -0.0000 -0.0000 -1.7884 1.6351 1.4246 1.1313 -0.0000 -0.0000 -10.9218 -25.6336 13.7820 8.5109 -0.0000 -0.0000
1.3761 31.8357 -6.5862 5.4155 -8.7945 -2.8248 -6.3627 8.3083 2.1076 7.6759 -6.2239 2.3537 -10.0008 6.5572 34.5767 -20.5116 -10.7295 -35.7718 -7.8284 -0.0000 23.4035 3.2056 13.9285 -13.0979 32.8623 0.0000 24.3270 8.7010 -22.1229 -22.7169 -26.8490 17.1323 22.8469 1.3908 0.0000 1.2728 0.3559 -14.5642 1.4152 33.1476 -0.0000 -26.2537 1.2000 4.3874 4.0239 -3.3962 0.0000 -0.0000 -14.2608 17.8564 -1.3658 5.2072 -0.0000 -0.0000 -1.7846 1.6436 1.4339 1.1260 -0.0000 -0.0000 -10.9258 -25.6506 13.7656 8.5132 -0.0000 -0.0000
1.3755 31.8359 -6.5869 5.4105 -8.7966 -2.8247 -6.3531 8.3102 2.0972 7.6831 -6.2175 2.3690 -10.0125 6.5560 34.5857 -20.5353 -10.7009 -35.7890 -7.8380 0.0000 23.3907 3.2055 13.9415 -13.0861 32.8623 0.0000 24.3270 8.6662 -22.1210 -22.7099 -26.8552 17.1325 22.8535 1.3915 -0.0000 1.2363 0.3306 -14.5422 1.3166 33.1476 -0.0000 -26.2537 1.2015 4.4019 4.0241 -3.3940 0.0000 -0.0000 -14.2521 17.8414 -1.3753 5.1628 -0.0000 -0.0000 -1.7832 1.6466 1.4327 1.1302 -0.0000 -0.0000 -10.9273 -25.6582 13.8146 8.5376 -0.0000 -0.0000
1.3751 31.8360 -6.5878 5.4103 -8.7984 -2.8208 -6.3546 8.3172 2.0868 7.7061 -6.2247 2.3744 -10.0281 6.5344 34.5770 -20.5390 -10.6732 -35.7844 -7.8491 0.0000 23.3944 3.2063 13.9299 -13.0998 32.8623 0.0000 24.3270 8.5333 -22.0762 -22.7707 -26.8203 17.0658 22.9029 1.4342 0.0000 1.2297 0.3221 -14.5479 1.2820 33.1476 -0.0000 -26.2537 1.2035 4.3944 4.0218 -3.3963 0.0000 -0.0000 -14.2536 17.8534 -1.3462 5.1626 -0.0000 -0.0000 -1.7862 1.6533 1.4288 1.1321 -0.0000 -0.0000 -10.9291 -25.6622 13.8095 8.5247 -0.0000 -0.0000
1.3757 31.8360 -6.5885 5.4065 -8.7858 -2.8276 -6.3505 8.3029 2.0916 7.7259 -6.2294 2.3731 -10.0280 6.5456 34.5799 -20.5378 -10.6866 -35.7989 -7.8439 0.0000 23.3542 3.1969 13.9044 -13.0853 32.8623 0.0000 24.3270 8.5288 -22.0802 -22.7615 -26.8955 17.0394 22.9129 1.4478 0.0000 1.2766 0.3085 -14.5463 1.2280 33.1476 -0.0000 -26.2537 1.2019 4.3873 4.0259 -3.3933 0.0000 -0.0000 -14.2559 17.8558 -1.3512 5.1787 -0.0000 -0.0000 -1.7834 1.6446 1.4339 1.1354 -0.0000 -0.0000 -10.9214 -25.6537 13.7885 8.5458 -0.0000 -0.0000
1.3758 31.8360 -6.5887 5.4038 -8.7867 -2.8280 -6.3496 8.3083 2.0873 7.7381 -6.2304 2.3867 -10.0395 6.5404 34.5781 -20.5232 -10.6964 -35.8000 -7.8483 -0.0000 23.3587 3.1989 13.8970 -13.0996 32.8623 0.0000 24.3270 8.5121 -22.0800 -22.7639 -26.8932 17.0282 22.9167 1.4580 -0.0000 1.2704 0.2969 -14.5293 1.1835 33.1476 -0.0000 -26.2537 1.2026 4.3994 4.0266 -3.3929 0.0000 -0.0000 -14.2543 17.8316 -1.3803 5.1988 -0.0000 -0.0000 -1.7805 1.6432 1.4339 1.1340 -0.0000 -0.0000 -10.9230 -25.6492 13.7730 8.5391 -0.0000 -0.0000
1.3759 31.8357 -6.5903 5.4081 -8.7991 -2.8160 -6.3551 8.3299 2.0658 7.7684 -6.2459 2.4050 -10.0364 6.5349 34.5966 -20.6084 -10.6595 -35.8336 -7.8175 0.0000 23.4737 3.2062 13.8478 -13.1728 32.8623 0.0000 24.3270 8.5099 -22.0847 -22.7551 -26.9118 17.0204 22.9179 1.4539 0.0000 1.2897 0.3106 -14.5665 1.2347 33.1476 -0.0000 -26.2537 1.1983 4.4079 4.0142 -3.3947 0.0000 -0.0000 -14.2469 17.8439 -1.3773 5.1705 -0.0000 -0.0000 -1.7915 1.6455 1.4247 1.1402 -0.0000 -0.0000 -10.9347 -25.6526 13.7921 8.5523 -0.0000 -0.0000
1.3759 31.8356 -6.5917 5.4079 -8.7940 -2.8203 -6.3507 8.3221 2.0647 7.7715 -6.2356 2.4155 -10.0359 6.5406 34.5931 -20.6008 -10.6759 -35.8242 -7.7969 0.0000 23.4359 3.1721 13.6167 -13.2467 32.8623 0.0000 24.3270 8.5144 -22.1013 -22.7515 -26.9247 17.0479 22.9240 1.4229 0.0000 1.2812 0.3112 -14.5177 1.2414 33.1476 -0.0000 -26.2537 1.1950 4.4216 4.0162 -3.3966 0.0000 -0.0000 -14.2468 17.8283 -1.3459 5.1665 -0.0000 -0.0000 -1.7921 1.6445 1.4277 1.1386 -0.0000 -0.0000 -10.9314 -25.6466 13.7967 8.5734 -0.0000 -0.0000
1.3763 31.8357 -6.5922 5.4045 -8.7926 -2.8158 -6.3499 8.3225 2.0555 7.7946 -6.2348 2.4202 -10.0320 6.5444 34.5919 -20.5881 -10.7026 -35.8188 -7.7961 0.0000 23.4668 3.1900 13.6151 -13.3202 32.8623 0.0000 24.3270 8.5237 -22.1031 -22.7551 -26.9263 17.0497 22.9278 1.4068 -0.0000 1.2580 0.3160 -14.5199 1.2602 33.1476 -0.0000 -26.2537 1.1970 4.4208 4.0128 -3.3949 0.0000 -0.0000 -14.2439 17.8289 -1.3631 5.1686 -0.0000 -0.0000 -1.7893 1.6353 1.4227 1.1371 -0.0000 -0.0000 -10.9317 -25.6407 13.7902 8.5547 -0.0000 -0.0000
1.3755 31.8355 -6.5906 5.3825 -8.7836 -2.8335 -6.3353 8.3201 2.0708 7.8199 -6.2399 2.4176 -10.0251 6.5451 34.5862 -20.5483 -10.7453 -35.8100 -7.7961 -0.0000 23.4455 3.1928 13.6190 -13.3280 32.8623 0.0000 24.3270 8.5175 -22.1078 -22.7737 -26.9147 17.0475 22.9336 1.3881 -0.0000 1.2545 0.3333 -14.5098 1.3302 33.1476 -0.0000 -26.2537 1.2272 4.4143 4.0259 -3.4104 0.0000 -0.0000 -14.2530 17.8287 -1.3575 5.2172 -0.0000 -0.0000 -1.7560 1.6287 1.4377 1.1222 -0.0000 -0.0000 -10.9218 -25.6474 13.7872 8.5582 -0.0000 -0.0000
1.3759 31.8356 -6.5928 5.3949 -8.7952 -2.8242 -6.3450 8.3343 2.0555 7.8317 -6.2487 2.4344 -10.0252 6.5420 34.5973 -20.5293 -10.7576 -35.8137 -7.7843 -0.0000 23.3970 3.1742 13.5843 -13.2851 32.8623 0.0000 24.3270 8.5454 -22.1288 -22.7508 -26.9283 17.0913 22.9249 1.3242 0.0000 1.2195 0.3215 -14.4679 1.2865 33.1476 -0.0000 -26.2537 1.2132 4.4140 4.0196 -3.4108 0.0000 -0.0000 -14.2447 17.8425 -1.3526 5.1538 -0.0000 -0.0000 -1.7793 1.6330 1.4298 1.1354 -0.0000 -0.0000 -10.9269 -25.6432 13.8213 8.6135 -0.0000 -0.0000
1.3759 31.8355 -6.5942 5.3943 -8.7962 -2.8238 -6.3416 8.3393 2.0533 7.8396 -6.2458 2.4318 -10.0420 6.5395 34.5907 -20.5185 -10.7739 -35.8086 -7.7873 -0.0000 23.4025 3.1890 13.5972 -13.3328 32.8623 0.0000 24.3270 8.5268 -22.1247 -22.7615 -26.9103 17.0865 22.9186 1.3095 -0.0000 1.2360 0.3335 -14.4461 1.3367 33.1476 -0.0000 -26.2537 1.2111 4.4167 4.0167 -3.4111 0.0000 -0.0000 -14.2418 17.8371 -1.3251 5.1700 -0.0000 -0.0000 -1.7771 1.6526 1.4294 1.1213 -0.0000 -0.0000 -10.9207 -25.6611 13.8155 8.5645 -0.0000 -0.0000
